HIERARCHY
ROOT Hips
{
	OFFSET 49.142799 -2.497189 53.325901
	CHANNELS 6 Xposition Yposition Zposition Xrotation Yrotation Zrotation
	JOINT spine
	{
		OFFSET 0.000000 -0.448575 7.800591
		CHANNELS 3 Xrotation Yrotation Zrotation
		JOINT spine1
		{
			OFFSET 0.000000 -0.000002 10.136402
			CHANNELS 3 Xrotation Yrotation Zrotation
			JOINT spine2
			{
				OFFSET 0.000000 -0.000001 9.712509
				CHANNELS 3 Xrotation Yrotation Zrotation
				JOINT Neck
				{
					OFFSET 0.000000 -1.188874 24.936096
					CHANNELS 3 Xrotation Yrotation Zrotation
					JOINT Head
					{
						OFFSET 0.000000 -0.000001 7.533844
						CHANNELS 3 Xrotation Yrotation Zrotation
						End Site
						{
							OFFSET 0.000000 6.014017 18.236099
						}
					}
				}
				JOINT RightShoulder
				{
					OFFSET -4.089649 0.569455 10.488800
					CHANNELS 3 Xrotation Yrotation Zrotation
					JOINT RightArm
					{
						OFFSET 0.000000 -0.000002 13.757004
						CHANNELS 3 Xrotation Yrotation Zrotation
						JOINT RightArmRoll
						{
							OFFSET 0.000000 -0.000001 6.944778
							CHANNELS 3 Xrotation Yrotation Zrotation
							JOINT RightForeArm
							{
								OFFSET 0.000000 -0.000003 20.227692
								CHANNELS 3 Xrotation Yrotation Zrotation
								JOINT RightForeArmRoll
								{
									OFFSET 0.000000 -0.000001 7.793121
									CHANNELS 3 Xrotation Yrotation Zrotation
									JOINT RightHand
									{
										OFFSET 0.000000 -0.000002 15.639099
										CHANNELS 3 Xrotation Yrotation Zrotation
										End Site
										{
											OFFSET 0.000000 -0.000000 0.100006
										}
									}
								}
							}
						}
					}
				}
				JOINT LeftShoulder
				{
					OFFSET 4.089649 0.569455 10.488800
					CHANNELS 3 Xrotation Yrotation Zrotation
					JOINT LeftArm
					{
						OFFSET 0.000000 -0.000002 13.757004
						CHANNELS 3 Xrotation Yrotation Zrotation
						JOINT LeftArmRoll
						{
							OFFSET 0.000000 -0.000001 6.944778
							CHANNELS 3 Xrotation Yrotation Zrotation
							JOINT LeftForeArm
							{
								OFFSET 0.000000 -0.000003 20.227692
								CHANNELS 3 Xrotation Yrotation Zrotation
								JOINT LeftForeArmRoll
								{
									OFFSET 0.000000 -0.000001 7.793121
									CHANNELS 3 Xrotation Yrotation Zrotation
									JOINT LeftHand
									{
										OFFSET 0.000000 -0.000002 15.639099
										CHANNELS 3 Xrotation Yrotation Zrotation
										End Site
										{
											OFFSET 0.000000 -0.000000 0.100006
										}
									}
								}
							}
						}
					}
				}
			}
		}
	}
	JOINT RightUpLeg
	{
		OFFSET -6.914162 1.063580 -1.267879
		CHANNELS 3 Xrotation Yrotation Zrotation
		JOINT RightUpLegRoll
		{
			OFFSET 0.000000 -0.000003 18.337799
			CHANNELS 3 Xrotation Yrotation Zrotation
			JOINT RightLeg
			{
				OFFSET 0.000000 0.000004 -22.708500
				CHANNELS 3 Xrotation Yrotation Zrotation
				JOINT RightLegRoll
				{
					OFFSET 0.000000 -0.000004 22.782803
					CHANNELS 3 Xrotation Yrotation Zrotation
					JOINT RightFoot
					{
						OFFSET 0.000000 -0.000003 18.962898
						CHANNELS 3 Xrotation Yrotation Zrotation
						JOINT RightToeBase
						{
							OFFSET 0.000000 -0.000003 15.851997
							CHANNELS 3 Xrotation Yrotation Zrotation
							End Site
							{
								OFFSET 0.006718 0.884891 7.677010
							}
						}
					}
				}
			}
		}
	}
	JOINT LeftUpLeg
	{
		OFFSET 6.914162 1.063580 -1.267879
		CHANNELS 3 Xrotation Yrotation Zrotation
		JOINT LeftUpLegRoll
		{
			OFFSET 0.000000 -0.000003 18.337898
			CHANNELS 3 Xrotation Yrotation Zrotation
			JOINT LeftLeg
			{
				OFFSET 0.000000 -0.000004 22.708405
				CHANNELS 3 Xrotation Yrotation Zrotation
				JOINT LeftLegRoll
				{
					OFFSET 0.000000 -0.000004 22.993401
					CHANNELS 3 Xrotation Yrotation Zrotation
					JOINT LeftFoot
					{
						OFFSET 0.000000 -0.000003 18.752205
						CHANNELS 3 Xrotation Yrotation Zrotation
						JOINT LeftToeBase
						{
							OFFSET 0.000000 -0.000003 15.852005
							CHANNELS 3 Xrotation Yrotation Zrotation
							End Site
							{
								OFFSET -0.030113 0.884891 7.677017
							}
						}
					}
				}
			}
		}
	}
}
MOTION
Frames: 6
Frame Time: 0.041667
54.890194 -32.066017 93.991501 -0.274598 2.557280 5.516743 -1.081383 -0.377066 -0.165102 1.852420 -0.751717 -0.332369 3.497535 -0.755619 -0.323475 23.822911 11.595714 0.652803 -6.712677 -1.251563 1.305466 -18.290077 -75.964346 -21.668902 -60.325925 -103.744085 -59.350881 -0.000000 0.000005 -0.000000 26.402409 -15.290439 2.993807 0.000001 0.000007 -2.999990 -5.000353 -7.998808 0.000206 -3.656014 67.093973 5.115277 -22.669724 108.090141 14.300038 0.000001 -0.000008 -0.000003 14.455267 7.308528 0.285112 0.000000 -0.000002 3.000000 -5.000193 7.999052 -0.000099 -5.635586 178.795843 -2.851626 -179.999991 0.000005 -0.917999 171.692951 -0.624375 -0.602165 -0.000006 -0.000000 -0.011864 67.472536 6.403716 3.444651 25.456957 -7.355616 0.000000 -9.636811 177.059008 4.925892 -0.000004 -0.000004 -1.214470 -16.594317 5.101328 1.048881 -0.000003 0.000002 -0.352057 73.522069 -7.807599 0.924769 25.456955 7.355613 0.000000 
54.881592 -32.055321 93.992393 -0.265419 2.559052 5.527951 -1.077654 -0.376690 -0.165052 1.858920 -0.751008 -0.331138 3.504034 -0.754907 -0.322245 23.803752 11.594703 0.652119 -6.712806 -1.255138 1.302935 -18.305798 -75.971286 -21.685871 -60.288570 -103.673338 -59.178576 -0.000000 0.000006 -0.000001 26.272987 -15.271912 2.967309 -0.000004 0.000006 -2.999992 -5.000355 -7.998810 0.000205 -3.669656 67.096370 5.130859 -22.323041 108.043539 14.043628 0.000001 -0.000008 -0.000002 14.806667 7.366371 0.268619 0.000000 -0.000002 3.000000 -5.000193 7.999052 -0.000100 -5.635019 178.788890 -2.858820 -179.999991 0.000005 -0.918001 171.711693 -0.620458 -0.601387 -0.000006 0.000000 -0.011856 67.472358 6.401913 3.449303 25.456957 -7.355616 0.000000 -9.650224 177.057150 4.933286 -0.000004 -0.000004 -1.214490 -16.593898 5.096831 1.048077 -0.000003 0.000002 -0.352043 73.524862 -7.805949 0.918404 25.456953 7.355613 0.000001 
54.890800 -32.064018 93.994995 -0.256538 2.560843 5.539113 -1.073896 -0.376307 -0.165000 1.865450 -0.750284 -0.329851 3.510555 -0.754183 -0.320961 23.785123 11.593832 0.651260 -6.713167 -1.259300 1.300343 -18.320965 -75.977863 -21.702240 -60.244919 -103.602714 -59.001708 -0.000000 0.000006 -0.000000 26.145568 -15.253993 2.941450 -0.000005 0.000007 -2.999990 -5.000355 -7.998810 0.000205 -3.682954 67.098665 5.146064 -21.971711 107.997216 13.788050 0.000000 -0.000008 -0.000002 15.168585 7.427134 0.250774 -0.000000 -0.000002 3.000000 -5.000196 7.999051 -0.000100 -5.634065 178.782920 -2.866392 -179.999991 0.000005 -0.918000 171.730422 -0.616527 -0.600608 -0.000006 -0.000000 -0.011845 67.472283 6.400125 3.454050 25.456957 -7.355616 0.000000 -9.663212 177.055306 4.940358 -0.000004 -0.000004 -1.214530 -16.593383 5.092605 1.047276 -0.000003 0.000001 -0.352019 73.527697 -7.804418 0.912225 25.456953 7.355613 0.000000 
54.889297 -32.053215 93.993896 -0.247861 2.562645 5.550233 -1.070112 -0.375917 -0.164948 1.871991 -0.749550 -0.328525 3.517103 -0.753446 -0.319636 23.766903 11.592921 0.650329 -6.713688 -1.263857 1.297706 -18.335680 -75.984045 -21.718125 -60.195885 -103.532199 -58.820626 -0.000000 0.000005 -0.000001 26.019503 -15.236506 2.916032 -0.000003 0.000006 -2.999990 -5.000356 -7.998811 0.000205 -3.696011 67.101062 5.160989 -21.615380 107.952205 13.531217 0.000001 -0.000008 -0.000003 15.537880 7.489946 0.231718 0.000001 -0.000002 3.000002 -5.000196 7.999052 -0.000101 -5.632827 178.775926 -2.874080 -179.999991 0.000005 -0.918000 171.749218 -0.612595 -0.598834 -0.000006 0.000000 -0.011830 67.472413 6.398282 3.458873 25.456959 -7.355617 0.000000 -9.675882 177.053448 4.947183 -0.000004 -0.000004 -1.214570 -16.592772 5.088584 1.046479 -0.000002 0.000001 -0.351989 73.530770 -7.802884 0.906162 25.456952 7.355613 0.000000 
54.885895 -32.049316 93.994995 -0.239296 2.564446 5.561337 -1.066315 -0.375524 -0.164893 1.878540 -0.748810 -0.327176 3.523655 -0.752703 -0.318291 23.748885 11.591992 0.649366 -6.714304 -1.268652 1.295051 -18.350242 -75.990144 -21.733824 -60.143149 -103.461793 -58.636559 -0.000000 0.000006 -0.000001 25.894444 -15.219220 2.890975 -0.000004 0.000007 -2.999990 -5.000354 -7.998811 0.000206 -3.708957 67.103371 5.175791 -21.255988 107.907700 13.273480 0.000001 -0.000008 -0.000003 15.911604 7.553959 0.211544 0.000001 -0.000002 3.000000 -5.000195 7.999051 -0.000100 -5.631441 178.769970 -2.881981 -179.999991 0.000005 -0.918000 171.768001 -0.607675 -0.597918 -0.000006 -0.000000 -0.011812 67.472543 6.396441 3.463798 25.456953 -7.355615 0.000000 -9.688377 177.051576 4.953882 -0.000004 -0.000004 -1.214620 -16.592071 5.084681 1.045680 -0.000003 0.000002 -0.351954 73.533755 -7.801422 0.900180 25.456950 7.355613 0.000000 
54.883099 -32.041618 93.994003 -0.230767 2.566258 5.572433 -1.062522 -0.375131 -0.164838 1.885091 -0.748068 -0.325823 3.530204 -0.751960 -0.316939 23.730978 11.591144 0.648339 -6.714932 -1.273506 1.292393 -18.364635 -75.996134 -21.749368 -60.088255 -103.391504 -58.450505 -0.000000 0.000006 -0.000001 25.769534 -15.201973 2.866044 -0.000002 0.000006 -2.999990 -5.000352 -7.998811 0.000205 -3.721865 67.105775 5.190551 -20.895567 107.862860 13.015235 0.000001 -0.000008 -0.000002 16.286502 7.618303 0.190473 0.000001 -0.000002 3.000001 -5.000197 7.999052 -0.000102 -5.630011 178.763003 -2.889807 -179.999991 0.000005 -0.918996 171.786798 -0.603743 -0.597146 -0.000006 -0.000000 -0.011797 67.472755 6.394575 3.468614 25.456957 -7.355616 0.000000 -9.700827 177.049732 4.960549 -0.000003 -0.000004 -1.214670 -16.591364 5.080795 1.044880 -0.000003 0.000002 -0.351919 73.536760 -7.799986 0.894300 25.456953 7.355613 -0.000000 
